{"glyphs":{":":{"x_min":0,"x_max":252,"ha":252,"o":""},"$":{"x_min":0,"x_max":444,"ha":444,"o":"m 356 152 q 356 94 322 59 q 288 25 219 17 q 209 -65 208 -128 l 168 -128 q 171 -109 175 -68 l 185 15 q 116 15 43 36 l 60 79 q 118 51 197 51 q 255 51 285 75 q 315 99 315 141 q 315 172 292 195 q 269 217 204 246 q 139 274 113 300 q 88 325 88 362 q 88 422 127 457 q 167 492 237 498 q 245 575 248 648 l 290 648 q 286 622 271 499 q 322 498 375 482 l 356 441 q 312 462 243 462 q 188 462 159 438 q 131 414 131 373 q 131 337 156 317 q 182 296 238 272 q 295 249 325 220 q 356 192 356 152 z"},"?":{"x_min":0,"x_max":353,"ha":353,"o":"m 148 336 l 131 262 l 113 262 l 106 366 q 246 394 246 506 q 246 560 200 587 q 153 614 60 614 l 42 614 l 58 652 q 170 652 231 618 q 292 584 292 515 q 292 449 252 405 q 212 360 148 336 z m 112 94 q 130 94 139 84 q 148 74 148 55 q 148 32 135 15 q 122 -1 99 -1 q 80 -1 70 9 q 60 19 60 41 q 60 67 74 81 q 89 94 112 94 z"},"<":{"x_min":0,"x_max":504,"ha":504,"o":"m 111 258 l 109 247 l 393 49 l 369 16 l 51 243 l 55 265 l 418 492 l 439 457 z"},"'":{"x_min":0,"x_max":234,"ha":234,"o":"m 179 647 q 179 593 151 494 q 124 395 112 343 l 103 343 q 104 388 104 456 q 104 522 106 574 q 108 626 116 660 q 124 694 149 694 q 179 694 179 647 z"},"=":{"x_min":0,"x_max":504,"ha":504,"o":"m 450 325 l 71 325 l 76 367 l 454 367 z m 430 125 l 49 125 l 55 166 l 434 166 z"},"a":{"x_min":0,"x_max":460,"ha":460,"o":"m 356 88 q 356 39 362 1 l 316 -5 q 313 37 313 115 l 311 115 q 279 53 237 22 q 194 -9 145 -9 q 87 -9 57 40 q 27 88 27 159 q 27 286 117 375 q 207 464 353 464 l 358 464 l 380 480 l 410 487 q 384 364 370 276 q 357 188 357 129 z m 156 29 q 199 29 250 83 q 302 136 324 242 q 346 349 349 426 q 208 424 139 346 q 71 267 71 168 q 71 96 92 62 q 112 29 156 29 z"},"L":{"x_min":0,"x_max":444,"ha":444,"o":"m 112 636 l 165 636 l 160 599 q 160 597 138 426 q 117 254 101 38 q 149 38 236 40 q 323 42 386 44 l 401 45 l 394 0 l 45 0 q 50 25 64 147 q 78 270 91 385 q 104 500 112 636 z"},"3":{"x_min":0,"x_max":462,"ha":462,"o":"m 248 241 l 247 238 q 315 227 356 190 q 397 154 397 89 q 397 18 361 -37 q 326 -92 237 -135 q 147 -179 5 -193 l 0 -153 q 144 -138 217 -102 q 291 -65 321 -22 q 352 21 352 77 q 352 150 294 180 q 236 211 109 211 l 123 252 q 219 252 289 294 q 358 336 358 402 q 358 439 329 459 q 301 479 226 479 q 187 479 95 461 l 105 504 q 182 520 245 520 q 321 520 362 492 q 403 463 403 402 q 403 350 359 306 q 316 262 248 241 z"},";":{"x_min":0,"x_max":252,"ha":252,"o":""},"J":{"x_min":0,"x_max":372,"ha":372,"o":"m -19 -1 l -8 44 q 10 36 33 31 q 56 26 80 26 q 164 26 199 80 q 235 133 247 256 l 254 322 q 267 441 274 510 q 281 579 283 636 l 337 636 q 329 590 318 503 q 308 416 292 266 q 276 117 230 52 q 184 -13 80 -13 q 51 -13 24 -10 q -4 -6 -19 -1 z"},"V":{"x_min":0,"x_max":560,"ha":560,"o":"m 264 0 l 221 0 q 221 32 202 110 q 183 188 136 305 q 89 423 61 511 q 33 599 33 636 l 82 636 q 82 603 103 531 q 125 459 166 351 q 208 242 227 169 q 246 96 246 68 l 250 68 q 253 116 395 351 q 537 585 537 636 l 587 636 q 587 610 545 530 q 504 450 425 325 q 345 200 305 114 q 265 27 264 0 z"},"\"":{"x_min":0,"x_max":453,"ha":453,"o":"m 189 647 q 189 620 183 586 q 177 553 166 510 l 152 460 q 131 387 122 343 l 113 343 q 114 388 114 456 q 114 552 119 609 q 124 667 134 680 q 144 694 159 694 q 189 694 189 647 z m 378 647 q 378 620 372 586 q 366 553 355 510 l 342 462 q 321 390 311 343 l 302 343 q 303 388 303 456 q 303 498 305 552 q 306 606 313 650 q 320 694 348 694 q 378 694 378 647 z"},"7":{"x_min":0,"x_max":437,"ha":437,"o":"m 75 -161 l 28 -151 q 30 -106 198 148 q 366 403 371 474 q 308 474 218 472 q 127 470 48 466 l 57 515 l 423 515 q 423 479 376 376 q 330 272 206 76 q 82 -121 75 -161 z"},"S":{"x_min":0,"x_max":473,"ha":473,"o":"m 403 167 q 403 -14 164 -14 q 130 -14 89 -9 q 47 -4 19 5 l 35 52 q 59 40 96 32 q 133 24 173 24 l 178 24 q 264 26 310 61 q 356 96 356 155 q 356 206 333 239 q 309 272 222 310 q 136 349 103 385 q 71 422 71 474 q 71 553 127 599 q 183 644 284 644 q 368 644 413 631 l 396 584 q 336 607 255 607 q 197 607 157 572 q 117 538 117 485 q 117 442 139 414 q 161 385 245 349 q 330 312 366 271 q 403 229 403 167 z"},"}":{"x_min":0,"x_max":353,"ha":353,"o":"m 247 249 l 247 251 q 212 251 182 279 q 151 306 151 350 q 151 385 174 442 q 197 499 206 539 q 215 579 215 595 q 215 635 173 665 q 131 695 54 716 l 71 743 q 256 702 256 599 q 256 559 225 473 q 195 388 195 340 q 195 314 217 296 q 238 278 296 273 l 288 231 q 225 218 196 197 q 167 176 167 138 q 167 111 177 50 q 187 -12 187 -52 q 187 -130 125 -179 q 63 -228 -38 -239 l -45 -205 q 43 -194 96 -155 q 148 -116 148 -54 q 148 -11 137 55 q 127 121 127 130 q 127 179 157 211 q 188 243 247 249 z"},"Z":{"x_min":0,"x_max":479,"ha":479,"o":"m 167 177 q 128 122 104 85 q 80 48 78 43 l 78 38 q 232 38 408 46 l 402 0 l 16 0 l 21 41 q 124 176 237 348 l 291 429 q 346 512 368 547 q 391 583 392 593 l 392 596 l 320 596 q 173 596 86 591 l 90 636 l 455 636 l 450 593 q 428 562 333 422 z"},"x":{"x_min":0,"x_max":491,"ha":491,"o":"m 276 252 l 276 250 q 304 210 354 124 l 368 99 q 376 85 400 45 q 424 4 424 0 l 369 -5 q 369 -1 364 11 q 358 23 347 45 l 326 85 q 291 155 245 227 l 196 169 q 153 120 115 66 q 76 11 76 0 l 21 -5 q 21 9 36 31 q 50 54 86 98 l 105 121 q 146 171 170 198 q 193 225 222 253 l 222 254 q 210 271 190 305 q 170 339 131 398 q 92 457 92 464 l 152 469 q 152 449 193 380 q 233 311 255 280 l 257 280 q 348 378 373 417 q 399 457 399 464 l 450 469 q 450 443 383 367 q 315 291 276 252 z"},")":{"x_min":0,"x_max":353,"ha":353,"o":"m 43 722 l 68 743 q 164 674 209 570 q 255 466 255 369 q 255 139 159 -25 q 63 -188 -40 -237 l -52 -215 q 68 -121 138 27 q 207 175 207 340 q 207 463 169 552 q 130 641 43 722 z"},"&":{"x_min":0,"x_max":633,"ha":633,"o":"m 536 0 q 536 50 461 141 q 415 69 351 27 q 287 -14 203 -14 q 131 -14 79 33 q 27 80 27 156 q 27 225 61 277 q 95 329 195 382 q 108 449 108 513 q 108 576 147 611 q 186 646 248 646 q 312 646 351 614 q 391 582 391 532 q 391 493 366 460 q 341 428 257 384 q 372 293 455 207 q 473 245 484 288 q 496 331 500 372 l 554 372 q 528 261 483 177 q 531 124 558 78 q 586 32 586 0 z m 233 402 q 287 433 317 462 q 346 491 346 525 q 346 567 320 588 q 294 609 250 609 q 208 609 178 589 q 148 569 148 521 q 148 492 170 463 q 192 434 233 402 z m 436 170 q 392 219 334 269 q 277 319 219 364 q 132 315 102 268 q 72 221 72 158 q 72 99 113 63 q 153 27 212 27 q 285 27 341 65 q 397 104 436 170 z"},"_":{"x_min":0,"x_max":485,"ha":485,"o":"m -118 -250 l -118 -212 l 386 -212 l 386 -250 z"},"v":{"x_min":0,"x_max":461,"ha":461,"o":"m 217 0 l 176 0 q 176 66 110 245 q 44 424 44 464 l 95 469 q 95 425 145 281 q 195 137 203 69 l 206 69 q 219 119 303 268 q 388 417 388 464 l 441 469 q 441 429 363 298 q 285 167 251 89 q 217 10 217 0 z"},"O":{"x_min":0,"x_max":639,"ha":639,"o":"m 359 646 q 464 646 531 567 q 597 489 597 364 q 597 262 558 174 q 518 86 445 33 q 373 -20 278 -20 q 174 -20 107 60 q 40 140 40 262 q 40 423 131 534 q 221 646 359 646 z m 289 20 q 403 20 476 123 q 550 226 550 364 q 550 477 494 542 q 439 607 343 607 q 231 607 159 503 q 87 399 87 262 q 87 153 142 87 q 197 20 289 20 z"},"(":{"x_min":0,"x_max":353,"ha":353,"o":"m 268 -216 l 243 -237 q 147 -168 102 -64 q 56 40 56 137 q 56 281 94 399 q 132 517 206 613 q 279 709 351 743 l 363 721 q 246 630 175 483 q 104 336 104 166 q 104 43 142 -46 q 180 -134 268 -216 z"},"C":{"x_min":0,"x_max":478,"ha":478,"o":"m 313 27 q 350 27 385 34 q 420 42 456 55 l 448 7 q 366 -13 307 -13 q 183 -13 111 65 q 40 143 40 277 q 40 434 139 539 q 238 645 385 645 q 438 645 481 631 l 464 585 q 442 593 420 597 q 398 601 379 601 q 252 601 170 509 q 88 417 88 283 q 88 163 148 95 q 208 27 313 27 z"},"W":{"x_min":0,"x_max":893,"ha":893,"o":"m 919 636 q 919 607 838 449 q 758 292 701 158 q 645 25 643 0 l 600 0 q 600 56 548 257 q 497 458 472 562 l 467 562 q 438 476 367 341 q 296 206 264 119 q 232 32 231 0 l 188 0 q 188 33 172 113 q 157 194 122 310 l 110 352 q 66 497 51 553 q 36 610 36 636 l 85 636 q 85 615 94 575 q 103 536 132 433 l 155 348 q 184 240 198 167 q 213 95 213 68 l 217 68 q 219 93 245 161 q 270 230 328 345 q 386 460 418 535 q 451 610 451 636 l 503 636 q 503 615 511 577 q 520 540 541 458 l 568 348 q 625 114 625 68 l 629 68 q 631 92 669 176 q 707 259 748 349 l 786 432 q 836 539 853 579 q 869 620 869 636 z"},"A":{"x_min":0,"x_max":608,"ha":608,"o":"m 149 227 q 141 210 125 182 l 100 134 q 80 94 63 54 q 47 15 44 0 l -13 0 q -8 11 98 213 q 204 415 252 519 q 301 623 303 636 l 366 636 q 366 609 460 313 q 554 18 554 0 l 500 0 q 500 11 439 227 z m 331 594 q 330 588 292 509 q 253 429 169 265 l 431 265 q 335 574 335 594 z"},"f":{"x_min":0,"x_max":329,"ha":329,"o":"m 192 452 q 256 452 331 457 l 326 414 q 257 416 188 416 l 169 91 q 162 -25 147 -78 q 132 -132 110 -163 q 88 -194 29 -218 l 16 -200 q 74 -159 94 -103 q 113 -47 126 116 q 139 279 148 416 q 90 416 34 414 l 41 455 q 116 452 151 452 q 161 555 176 606 q 191 657 223 679 q 256 701 320 701 q 336 701 365 694 l 354 655 q 322 663 298 663 q 244 663 223 619 q 202 575 192 452 z"},"Q":{"x_min":0,"x_max":639,"ha":639,"o":"m 553 -213 l 502 -215 q 494 -141 479 -96 q 463 -52 425 -36 q 388 -20 288 -20 q 174 -20 107 60 q 40 140 40 262 q 40 423 131 534 q 221 646 359 646 q 464 646 531 567 q 597 489 597 364 q 597 248 543 148 q 490 48 405 10 l 405 6 q 484 2 511 -49 q 538 -100 553 -213 z m 343 607 q 231 607 159 503 q 87 399 87 262 q 87 153 142 87 q 197 20 289 20 q 403 20 476 123 q 550 226 550 364 q 550 477 494 542 q 439 607 343 607 z"},"w":{"x_min":0,"x_max":721,"ha":721,"o":"m 704 469 q 704 428 633 295 q 561 162 529 85 q 496 9 496 0 l 455 0 q 455 35 415 209 q 375 384 372 414 l 369 414 q 347 348 297 250 q 247 153 216 82 q 185 10 185 0 l 144 0 q 144 21 136 57 q 128 93 103 189 l 89 243 q 59 359 49 403 q 39 447 39 464 l 90 469 q 90 451 97 414 q 104 376 124 287 l 129 265 l 138 225 q 153 159 161 121 q 169 83 171 69 l 174 69 q 186 110 262 268 q 339 425 346 464 l 402 469 q 402 447 435 313 q 469 180 482 69 l 485 69 q 497 109 574 265 q 651 421 651 464 z"},"-":{"x_min":0,"x_max":252,"ha":252,"o":"m 222 231 l 21 225 l 29 267 l 231 275 z"},"E":{"x_min":0,"x_max":464,"ha":464,"o":"m 140 436 l 130 353 q 284 353 357 359 l 351 312 q 317 314 254 315 q 191 317 126 317 q 122 272 114 187 q 105 101 101 38 q 261 38 412 46 l 403 0 l 46 0 q 51 30 60 107 l 70 202 l 85 335 q 104 499 112 636 l 442 636 l 434 591 q 312 596 159 596 z"},"s":{"x_min":0,"x_max":389,"ha":389,"o":"m 332 139 q 332 71 288 32 q 244 -8 168 -8 q 93 -8 24 11 l 36 55 q 69 42 99 37 q 129 31 172 31 q 229 31 259 54 q 289 78 289 122 q 289 165 268 183 q 247 202 184 229 q 121 257 92 283 q 63 309 63 354 q 63 407 108 442 q 152 478 225 478 q 294 478 351 463 l 334 422 q 274 439 222 439 q 168 439 137 418 q 106 398 106 364 q 106 330 128 312 q 149 293 216 262 q 282 231 307 205 q 332 179 332 139 z"},">":{"x_min":0,"x_max":504,"ha":504,"o":"m 392 250 l 394 261 l 110 459 l 134 492 l 452 265 l 448 243 l 85 16 l 64 50 z"},"l":{"x_min":0,"x_max":210,"ha":210,"o":"m 162 511 q 147 396 135 266 q 122 136 111 1 l 62 -5 q 62 -1 68 37 q 73 74 91 232 l 98 293 q 106 370 118 499 q 130 628 132 687 l 180 690 q 180 674 172 599 z"},"8":{"x_min":0,"x_max":520,"ha":520,"o":"m 461 537 q 461 483 423 441 q 386 399 325 369 l 325 366 q 391 320 425 278 q 459 236 459 184 q 459 98 397 45 q 335 -8 238 -8 q 162 -8 109 36 q 57 81 57 156 q 57 222 100 276 q 142 330 227 365 l 227 368 q 181 406 157 439 q 133 473 133 512 q 133 583 181 625 q 229 667 310 667 q 380 667 420 629 q 461 591 461 537 z m 178 524 q 178 487 204 456 q 229 425 284 387 q 349 414 383 448 q 416 483 416 531 q 416 581 384 605 q 353 629 305 629 q 248 629 213 600 q 178 571 178 524 z m 410 167 q 410 214 384 250 q 358 287 266 343 q 192 317 147 271 q 102 225 102 156 q 102 91 142 60 q 183 29 247 29 q 314 29 362 68 q 410 108 410 167 z"},"\\":{"x_min":0,"x_max":234,"ha":234,"o":"m 68 710 l 112 710 q 112 612 150 250 q 188 -111 188 -147 l 144 -147 q 144 -84 106 289 q 68 662 68 710 z"},"e":{"x_min":0,"x_max":472,"ha":472,"o":"m 305 485 q 363 485 401 456 q 438 427 438 379 q 438 305 352 272 q 267 239 96 234 q 96 121 133 73 q 170 26 256 26 q 319 26 399 78 l 390 32 q 333 -12 244 -12 q 154 -12 102 45 q 51 103 51 199 q 51 320 123 403 q 195 485 305 485 z m 302 448 q 231 448 173 396 q 116 345 103 269 q 246 271 319 299 q 393 326 393 383 q 393 410 366 429 q 340 448 302 448 z"},"b":{"x_min":0,"x_max":537,"ha":537,"o":"m 159 508 q 152 438 142 347 l 144 347 q 217 479 330 479 q 402 479 446 426 q 489 373 489 291 q 489 154 422 71 q 354 -12 237 -12 q 197 -12 163 -3 q 129 6 109 20 l 106 20 l 95 0 l 61 -5 q 69 56 82 165 q 94 274 103 365 l 109 420 q 120 526 125 584 q 130 642 130 687 l 178 690 q 178 681 170 612 z m 321 440 q 250 440 192 361 q 134 282 125 188 l 112 56 q 137 41 169 32 q 202 24 227 24 q 328 24 386 93 q 444 162 444 277 q 444 361 416 401 q 387 440 321 440 z"},"%":{"x_min":0,"x_max":504,"ha":504,"o":"m 182 639 q 232 639 260 611 q 287 582 287 535 q 287 480 250 442 q 212 403 159 403 q 111 403 83 432 q 55 462 55 507 q 55 563 91 601 q 126 639 182 639 z m 51 0 l 8 5 q 13 51 228 319 q 443 587 447 636 l 491 631 q 484 586 271 321 q 57 56 51 0 z m 161 429 q 200 429 226 459 q 252 489 252 533 q 252 563 232 588 q 212 612 181 612 q 142 612 116 581 q 90 551 90 507 q 90 477 109 453 q 129 429 161 429 z m 340 233 q 390 233 417 204 q 445 176 445 129 q 445 74 407 35 q 370 -3 317 -3 q 270 -3 242 26 q 214 55 214 101 q 214 158 250 195 q 285 233 340 233 z m 319 23 q 358 23 384 53 q 410 83 410 127 q 410 157 391 182 q 371 206 339 206 q 300 206 275 176 q 249 145 249 101 q 249 70 268 47 q 287 23 319 23 z"},"m":{"x_min":0,"x_max":794,"ha":794,"o":"m 141 347 q 162 397 211 438 q 260 479 309 479 q 367 479 392 447 q 418 415 421 347 l 425 347 q 452 412 496 445 q 541 479 595 479 q 659 479 693 441 q 727 403 727 334 q 727 286 718 183 q 708 81 708 0 l 661 -5 q 661 38 674 154 q 686 271 686 312 q 686 376 663 409 q 640 441 598 441 q 527 441 481 380 q 436 320 422 225 q 408 131 408 38 q 408 22 409 0 l 361 -5 q 361 30 374 156 q 386 283 386 322 q 386 386 369 414 q 352 441 304 441 q 243 441 185 357 q 128 274 119 182 l 107 45 l 103 0 l 57 -5 q 91 243 91 337 q 91 406 83 462 l 136 474 q 139 418 139 347 z"},"#":{"x_min":0,"x_max":504,"ha":504,"o":"m 412 447 l 493 447 l 488 415 l 399 415 l 334 265 l 416 265 l 413 232 l 320 232 q 310 208 268 110 q 226 13 222 0 l 179 0 q 182 7 215 78 q 249 148 285 232 l 153 232 q 143 208 101 110 q 59 13 55 0 l 12 0 q 15 7 48 78 q 82 148 118 232 l 41 232 l 47 265 l 132 265 l 197 415 l 119 415 l 122 447 l 210 447 q 251 542 268 583 q 285 624 288 639 l 331 639 q 329 630 300 568 q 271 505 245 447 l 377 447 q 418 542 435 583 q 452 624 455 639 l 498 639 q 496 630 467 568 q 438 505 412 447 z m 299 265 l 364 415 l 232 415 l 167 265 z"},",":{"x_min":0,"x_max":252,"ha":252,"o":"m -4 -124 q 46 -78 62 -52 q 77 -27 83 0 q 58 4 45 16 q 32 27 32 49 q 32 72 46 84 q 61 95 80 95 q 99 95 111 82 q 122 68 122 45 q 122 -7 90 -56 q 58 -104 -9 -157 l -18 -136 z"},"n":{"x_min":0,"x_max":514,"ha":514,"o":"m 138 346 q 167 414 214 446 q 261 479 319 479 q 383 479 416 443 q 448 407 448 334 q 448 302 439 196 q 430 89 430 0 l 380 -5 q 380 10 392 126 q 405 242 405 327 q 405 388 383 415 q 361 441 306 441 q 238 441 181 358 q 124 275 117 157 q 109 40 106 0 l 57 -5 q 91 243 91 337 q 91 406 83 462 l 133 473 q 136 420 136 346 z"},"h":{"x_min":0,"x_max":517,"ha":517,"o":"m 430 0 l 379 -5 q 379 15 392 122 q 405 229 405 327 q 405 389 384 415 q 362 441 308 441 q 246 441 187 362 q 128 283 120 184 l 104 0 l 102 1 l 57 -5 q 57 2 63 42 q 70 83 74 125 l 87 246 l 100 365 q 113 494 119 565 q 125 636 127 687 l 173 690 q 173 672 161 557 l 138 347 l 141 347 q 209 479 319 479 q 383 479 416 443 q 448 407 448 334 q 448 302 439 196 q 430 89 430 0 z"},"z":{"x_min":0,"x_max":419,"ha":419,"o":"m 75 37 l 75 34 q 248 34 355 42 l 345 0 l 19 0 l 23 39 q 60 84 73 103 q 85 121 203 264 q 321 407 321 424 l 321 426 q 166 426 62 422 l 70 464 l 382 464 l 372 425 q 293 311 184 183 q 75 55 75 37 z"},"B":{"x_min":0,"x_max":526,"ha":526,"o":"m 460 504 q 460 445 428 404 q 396 363 340 349 l 340 346 q 398 334 435 296 q 471 258 471 207 q 471 112 395 55 q 319 -3 183 -3 q 161 -3 45 0 q 52 48 72 228 l 84 335 q 105 519 111 636 l 164 636 q 183 636 224 638 q 266 639 292 639 q 371 639 415 604 q 460 569 460 504 z m 131 365 q 146 365 170 364 l 201 364 q 318 364 367 396 q 415 427 415 498 q 415 601 282 601 q 234 601 208 600 q 183 599 158 595 q 158 593 151 546 q 145 499 131 365 z m 99 42 q 141 36 198 36 q 299 36 362 79 q 425 123 425 199 q 425 258 377 292 q 329 327 244 327 q 202 327 174 327 q 147 326 126 324 q 106 136 99 42 z"},"K":{"x_min":0,"x_max":530,"ha":530,"o":"m 383 160 q 401 133 444 72 q 487 10 487 0 l 431 0 q 431 12 349 135 q 268 258 235 292 q 203 327 159 327 l 127 327 q 118 253 112 178 q 105 104 99 -1 l 46 0 q 54 56 81 298 q 108 541 112 636 l 165 636 q 152 551 131 364 l 146 364 q 167 364 305 492 q 443 620 443 636 l 499 636 q 499 625 380 509 q 261 393 208 357 l 208 353 q 249 344 284 298 q 319 252 375 170 z"},"R":{"x_min":0,"x_max":531,"ha":531,"o":"m 462 491 q 462 439 429 391 q 396 344 328 318 l 329 315 q 385 297 413 245 q 441 193 490 0 l 437 0 q 405 149 379 206 q 354 263 323 279 q 293 294 204 294 q 140 294 124 293 q 103 105 101 0 l 45 0 q 52 48 76 259 q 101 471 111 636 l 164 636 q 179 636 221 638 q 264 639 280 639 q 366 639 414 600 q 462 560 462 491 z m 207 332 q 305 332 359 373 q 413 414 413 490 q 413 549 376 575 q 339 601 249 601 q 197 601 158 595 l 127 333 q 137 332 158 332 z"},"T":{"x_min":0,"x_max":493,"ha":493,"o":"m 396 595 q 350 596 304 596 l 301 572 q 281 422 272 335 l 268 295 q 259 206 254 140 q 248 74 244 0 l 191 0 q 197 41 224 272 q 250 504 254 596 q 190 596 53 591 l 58 636 l 509 636 l 501 591 q 469 592 453 593 z"},"P":{"x_min":0,"x_max":499,"ha":499,"o":"m 287 639 q 372 639 425 597 q 478 555 478 486 q 478 385 405 329 q 331 272 188 272 l 141 272 q 132 272 121 273 q 105 119 99 0 l 46 0 q 50 30 77 267 q 105 503 112 636 l 167 636 q 194 636 247 638 z m 259 601 q 224 601 205 600 q 185 599 158 595 l 124 311 q 137 310 192 310 q 315 310 374 354 q 433 397 433 473 q 433 540 393 571 q 353 601 259 601 z"},"|":{"x_min":0,"x_max":252,"ha":252,"o":"m 151 -252 l 104 -252 q 107 -105 107 85 l 107 230 q 107 540 103 757 l 150 757 q 147 524 147 195 q 147 56 148 -45 q 148 -146 151 -252 z"},"t":{"x_min":0,"x_max":378,"ha":378,"o":"m 139 416 q 112 416 49 413 l 55 454 q 79 452 114 452 l 146 452 l 166 594 l 210 597 l 207 577 q 195 513 186 452 q 254 452 330 457 l 325 413 q 235 416 179 416 q 179 415 166 298 q 153 182 153 137 q 153 69 167 49 q 182 28 219 28 q 246 28 273 38 q 301 49 331 70 l 323 24 q 267 -10 218 -10 q 158 -10 133 24 q 109 57 109 122 q 109 153 116 220 q 123 288 139 416 z"},"M":{"x_min":0,"x_max":753,"ha":753,"o":"m 344 72 l 347 72 q 350 93 369 138 q 389 183 453 315 l 474 358 q 540 496 567 559 q 594 622 594 636 l 673 636 q 660 501 660 270 q 660 70 667 0 l 612 0 q 612 177 615 319 q 618 462 627 598 l 624 598 q 579 479 471 265 q 364 51 359 0 l 314 0 q 314 30 300 107 q 286 185 257 307 l 210 500 l 200 543 l 197 561 q 191 595 190 598 l 185 598 q 174 499 126 261 l 99 121 q 76 8 76 0 l 28 0 q 28 7 49 95 q 70 184 107 371 q 143 558 150 636 l 229 636 q 229 598 287 366 q 344 135 344 72 z"},"g":{"x_min":0,"x_max":494,"ha":494,"o":"m 387 426 q 399 406 405 388 q 411 370 411 350 q 411 266 356 214 q 302 162 214 162 q 191 162 172 167 q 152 171 139 177 q 123 166 110 147 q 97 129 97 108 q 97 75 141 66 q 185 57 289 57 q 353 57 392 32 q 432 7 432 -40 q 432 -134 357 -193 q 282 -252 176 -252 q 104 -252 46 -220 q -12 -188 -12 -96 q -12 -48 13 -11 q 38 25 84 46 l 83 47 q 68 55 61 70 q 53 85 53 97 q 53 137 108 192 l 109 194 q 89 206 74 235 q 58 264 58 296 q 58 382 110 430 q 163 479 251 479 q 290 479 317 471 q 345 464 367 448 l 369 448 q 383 491 406 508 q 430 524 456 524 q 475 524 485 523 q 495 522 503 520 l 492 482 q 406 482 387 430 z m 215 199 q 288 199 328 237 q 368 274 368 335 q 368 392 342 418 q 316 445 240 445 q 176 445 138 406 q 101 367 101 304 q 101 250 129 225 q 157 199 215 199 z m 389 -56 q 389 -10 356 3 q 323 16 207 16 q 158 16 109 23 q 29 -21 29 -89 q 29 -152 64 -183 q 99 -215 178 -215 q 268 -215 329 -168 q 389 -121 389 -56 z"},"j":{"x_min":0,"x_max":218,"ha":218,"o":"m 138 648 q 170 648 170 613 q 170 567 131 567 q 99 567 99 601 q 99 648 138 648 z m 144 389 q 141 354 134 291 q 126 228 117 126 l 103 -35 q 97 -104 67 -151 q 36 -197 -14 -217 l -27 -195 q 20 -155 35 -124 q 49 -93 61 -16 q 72 61 85 214 q 98 367 99 461 l 151 472 q 148 444 147 429 z"},"i":{"x_min":0,"x_max":218,"ha":218,"o":"m 138 648 q 170 648 170 613 q 170 567 131 567 q 99 567 99 601 q 99 648 138 648 z m 126 216 q 117 128 108 0 l 60 -5 q 66 38 81 172 l 86 216 q 92 255 96 335 q 100 415 100 461 l 151 472 q 147 418 132 279 z"},"y":{"x_min":0,"x_max":439,"ha":439,"o":"m 5 -216 l 5 -177 q 61 -177 103 -145 q 145 -113 163 -72 q 181 -31 181 9 q 181 75 116 247 q 52 418 52 464 l 102 469 q 102 448 111 414 q 121 379 150 287 l 161 254 q 188 167 199 125 q 210 84 210 67 l 215 67 q 217 72 222 83 l 230 100 q 267 188 324 304 q 382 420 382 466 l 434 469 q 434 411 336 238 q 239 65 215 -28 q 192 -121 141 -168 q 91 -216 5 -216 z"},"@":{"x_min":0,"x_max":938,"ha":938,"o":"m 597 147 l 597 140 q 600 83 617 52 q 634 21 673 21 q 746 21 799 108 q 853 196 853 336 q 853 494 761 588 q 670 682 517 682 q 395 682 297 618 q 199 554 143 440 q 87 327 87 185 q 87 11 177 -91 q 267 -194 418 -194 q 457 -194 486 -189 q 516 -184 544 -174 l 548 -220 q 498 -232 418 -232 q 246 -232 145 -116 q 44 0 44 188 q 44 331 104 453 q 164 575 272 648 q 380 720 517 720 q 689 720 793 613 q 898 505 898 334 q 898 190 835 88 q 772 -14 665 -14 q 621 -14 591 20 q 561 54 561 139 l 560 139 q 525 68 478 27 q 431 -14 381 -14 q 326 -14 298 32 q 269 78 269 152 q 269 236 304 315 q 338 393 400 442 q 461 491 538 491 q 562 491 585 477 q 608 462 618 442 l 622 442 l 643 476 l 674 486 q 658 432 628 312 q 597 193 597 147 z m 390 23 q 457 23 526 142 q 594 261 606 412 q 597 430 578 442 q 559 454 532 454 q 440 454 377 365 q 314 276 314 149 q 314 83 333 53 q 353 23 390 23 z"},".":{"x_min":0,"x_max":252,"ha":252,"o":"m 92 94 q 110 94 119 84 q 128 74 128 55 q 128 32 115 15 q 102 -1 79 -1 q 60 -1 50 9 q 40 19 40 41 q 40 67 54 81 q 69 94 92 94 z"},"p":{"x_min":0,"x_max":534,"ha":534,"o":"m 138 457 q 140 387 140 346 l 143 346 q 213 479 324 479 q 400 479 444 428 q 488 377 488 291 q 488 154 419 71 q 351 -12 233 -12 q 200 -12 164 -3 q 128 6 110 20 l 108 20 q 107 8 106 3 l 96 -100 q 88 -173 85 -216 l 40 -223 q 95 235 95 352 q 95 398 87 462 l 137 473 z m 319 440 q 246 440 188 359 q 129 277 123 188 l 113 56 q 140 41 170 32 q 200 24 225 24 q 332 24 387 92 q 443 159 443 284 q 443 366 414 403 q 386 440 319 440 z"},"X":{"x_min":0,"x_max":552,"ha":552,"o":"m 493 0 l 433 0 q 433 17 408 78 q 382 139 314 245 l 271 311 l 263 323 l 251 309 q 166 208 132 154 q 98 100 69 56 q 39 13 39 0 l -20 0 q -20 20 80 153 q 180 287 242 357 q 220 391 193 432 q 167 473 150 502 q 78 621 78 636 l 138 636 q 138 626 156 587 q 174 547 194 515 l 277 388 q 309 422 336 452 q 362 481 392 520 l 404 536 q 439 579 458 604 q 477 630 477 636 l 534 636 q 534 621 464 543 q 394 465 358 421 q 322 377 300 354 q 403 194 448 106 q 493 18 493 0 z"},"*":{"x_min":0,"x_max":504,"ha":504,"o":"m 278 488 l 278 487 l 273 473 q 315 429 334 393 q 352 358 352 341 q 352 324 336 313 q 319 302 306 302 q 289 302 274 326 q 258 349 249 460 l 233 460 q 195 384 169 352 q 143 320 124 320 q 110 320 96 333 q 81 347 81 361 q 81 388 121 419 q 162 450 217 481 l 218 497 l 195 500 q 166 504 138 509 q 111 514 89 528 q 66 542 66 560 q 66 576 76 592 q 86 608 104 608 q 123 608 156 583 q 188 558 231 514 l 240 517 l 238 529 q 232 554 229 575 q 226 597 226 621 q 226 662 235 680 q 244 699 278 699 q 297 699 304 688 q 312 677 312 656 q 312 637 298 600 q 283 562 260 515 l 269 509 l 281 516 q 335 550 367 559 q 399 569 414 569 q 434 569 443 555 q 451 542 451 523 q 451 504 433 493 q 415 482 370 482 q 329 482 278 488 z"},"Y":{"x_min":0,"x_max":506,"ha":506,"o":"m 255 167 l 254 152 q 248 89 243 0 l 189 0 l 191 16 q 206 122 210 164 q 215 206 215 221 q 215 298 168 391 q 121 484 82 551 q 42 618 42 636 l 97 636 q 97 625 174 475 q 251 326 251 284 l 255 284 q 255 303 282 348 q 309 394 368 475 l 383 496 q 433 564 456 598 q 480 631 480 636 l 534 636 q 534 620 432 492 q 330 364 296 307 q 262 249 255 167 z"},"c":{"x_min":0,"x_max":421,"ha":421,"o":"m 237 26 q 272 26 303 37 q 334 48 376 77 l 367 28 q 312 -12 232 -12 q 148 -12 99 46 q 51 104 51 202 q 51 319 125 396 q 198 473 315 473 q 344 473 362 471 q 381 470 396 465 l 380 414 q 351 422 330 426 q 310 430 286 430 q 208 430 152 365 q 96 299 96 212 q 96 127 132 77 q 167 26 237 26 z"},"!":{"x_min":0,"x_max":252,"ha":252,"o":"m 179 600 q 179 557 155 444 q 130 331 114 245 l 99 245 q 104 299 107 354 q 110 410 110 453 q 110 559 121 600 q 133 642 155 642 q 167 642 173 632 q 179 623 179 600 z m 94 94 q 112 94 121 84 q 130 74 130 55 q 130 32 117 15 q 104 -1 81 -1 q 62 -1 52 9 q 42 19 42 41 q 42 67 57 81 q 71 94 94 94 z"},"/":{"x_min":0,"x_max":267,"ha":267,"o":"m 10 -147 l -44 -147 q -41 -114 84 250 q 208 614 218 710 l 272 710 q 269 669 142 302 q 16 -66 10 -147 z"},"[":{"x_min":0,"x_max":353,"ha":353,"o":"m 192 698 q 179 598 144 267 q 108 -64 96 -193 l 119 -192 q 122 -192 169 -191 q 216 -190 269 -185 l 262 -234 l 44 -230 q 79 17 94 172 q 108 327 127 533 l 146 736 l 370 743 l 362 696 q 273 698 192 698 z"},"6":{"x_min":0,"x_max":513,"ha":513,"o":"m 103 322 q 131 356 179 376 q 228 396 286 396 q 363 396 409 344 q 454 291 454 209 q 454 109 392 43 q 329 -22 229 -22 q 143 -22 96 47 q 49 115 49 206 q 49 396 141 518 q 233 640 411 656 l 410 616 q 279 601 206 531 q 132 461 100 322 z m 409 199 q 409 282 374 320 q 338 357 260 357 q 220 357 177 341 q 135 325 97 293 q 94 268 94 225 q 94 134 127 75 q 160 16 234 16 q 309 16 359 67 q 409 118 409 199 z"},"r":{"x_min":0,"x_max":359,"ha":359,"o":"m 105 0 l 57 -5 q 91 243 91 337 q 91 406 83 462 l 133 473 q 136 417 136 387 l 138 387 q 154 430 193 455 q 232 480 277 480 q 312 480 361 469 l 344 429 l 328 433 q 316 435 303 436 q 290 437 271 437 q 214 437 176 395 q 137 352 128 272 q 119 192 105 0 z"},"2":{"x_min":0,"x_max":417,"ha":417,"o":"m 33 54 q 96 83 210 172 q 323 261 323 372 q 323 425 288 452 q 253 479 188 479 q 160 479 136 476 q 112 473 74 463 l 90 507 q 114 513 141 517 q 169 520 191 520 q 277 520 323 482 q 368 444 368 376 q 368 311 340 260 q 312 210 253 162 q 194 114 75 38 l 75 36 q 236 36 359 42 l 343 0 l 20 0 z"},"{":{"x_min":0,"x_max":353,"ha":353,"o":"m 175 456 l 179 426 q 181 415 183 398 q 186 381 186 374 q 186 325 156 293 q 125 262 66 255 l 66 253 q 101 253 131 225 q 162 198 162 154 q 162 119 139 62 q 116 5 107 -35 q 98 -75 98 -91 q 98 -131 140 -161 q 182 -191 259 -212 l 242 -239 q 57 -199 57 -95 q 57 -57 88 30 q 118 117 118 164 q 118 192 95 209 q 72 226 17 231 l 25 273 q 88 286 117 307 q 146 328 146 366 q 146 393 136 454 q 126 516 126 556 q 126 631 187 681 q 248 731 351 743 l 358 709 q 270 698 217 659 q 165 620 165 558 q 165 542 167 514 q 169 485 175 456 z"},"9":{"x_min":0,"x_max":508,"ha":508,"o":"m 397 171 q 370 137 322 120 q 274 102 214 102 q 137 102 91 155 q 46 207 46 289 q 46 390 109 455 q 171 520 275 520 q 358 520 405 451 q 451 382 451 292 q 451 75 353 -54 q 254 -183 70 -197 l 62 -158 q 211 -146 292 -63 q 373 21 400 171 z m 91 299 q 91 219 125 180 q 158 141 240 141 q 280 141 323 157 q 365 173 403 205 q 406 231 406 273 q 406 364 373 423 q 339 482 265 482 q 190 482 141 431 q 91 379 91 299 z"}," ":{"x_min":0,"x_max":211,"ha":211,"o":""},"I":{"x_min":0,"x_max":210,"ha":210,"o":"m 98 0 l 45 0 q 53 57 80 297 q 107 537 111 636 l 164 636 q 146 510 127 339 q 108 168 98 0 z"},"H":{"x_min":0,"x_max":570,"ha":570,"o":"m 523 636 q 510 546 489 360 q 467 175 457 0 l 404 0 q 409 34 420 131 q 432 228 441 318 l 126 318 q 116 230 110 161 q 104 93 99 0 l 46 0 q 54 56 81 298 q 108 541 112 636 l 165 636 q 148 519 130 356 l 445 356 q 455 451 461 516 q 467 581 470 636 z"},"4":{"x_min":0,"x_max":490,"ha":490,"o":"m 340 42 l 333 -37 q 328 -99 324 -161 l 273 -161 q 287 -74 299 44 l 304 92 l 23 92 l 20 124 q 21 129 59 177 q 97 226 144 285 l 193 346 q 215 374 270 442 q 325 511 325 515 l 393 515 q 382 424 362 229 l 352 135 q 382 135 446 140 l 432 92 l 345 92 z m 71 135 l 71 133 q 187 133 308 136 q 322 246 339 400 l 347 474 l 343 474 q 336 461 204 299 q 71 136 71 135 z"},"~":{"x_min":0,"x_max":469,"ha":469,"o":"m 20 161 l -5 173 q 37 236 77 266 q 117 297 161 297 q 190 297 256 277 q 323 258 349 258 q 376 258 404 276 q 431 294 452 325 l 479 311 q 439 258 399 233 q 359 208 315 208 q 281 208 227 227 q 173 246 141 246 q 114 246 81 224 q 49 201 20 161 z"},"D":{"x_min":0,"x_max":571,"ha":571,"o":"m 532 359 q 532 203 435 98 q 338 -8 195 -8 q 179 -8 151 -6 q 123 -4 110 -4 l 47 0 q 53 30 62 119 q 71 208 90 372 q 110 536 111 636 l 156 636 q 178 636 203 638 q 228 639 250 639 q 378 639 455 563 q 532 487 532 359 z m 104 59 l 102 39 q 140 31 193 31 q 321 31 403 122 q 485 214 485 353 q 485 464 420 532 q 354 600 254 600 q 190 600 154 595 q 150 550 132 362 q 114 173 104 59 z"},"^":{"x_min":0,"x_max":469,"ha":469,"o":"m 438 306 l 279 627 l 268 627 l 46 305 l 16 333 l 269 692 l 290 692 l 468 333 z"},"0":{"x_min":0,"x_max":523,"ha":523,"o":"m 291 509 q 380 509 420 454 q 460 399 464 306 q 464 242 439 169 q 415 97 362 45 q 309 -6 228 -6 q 146 -6 102 52 q 59 109 59 204 q 59 269 86 340 q 112 411 165 460 q 218 509 291 509 z m 104 224 l 104 208 q 104 124 133 78 q 161 32 232 32 q 298 32 339 77 q 380 122 398 181 q 417 241 419 294 q 419 379 388 425 q 358 471 288 471 q 227 471 186 429 q 145 388 125 330 q 105 272 104 224 z"},"F":{"x_min":0,"x_max":436,"ha":436,"o":"m 159 596 q 158 574 148 497 l 140 435 q 134 387 129 337 q 251 337 345 343 l 340 296 q 244 301 124 301 q 115 223 111 163 q 106 104 102 35 l 99 0 l 46 0 q 51 30 60 107 l 70 202 l 85 335 q 104 499 112 636 l 448 636 l 440 591 q 330 596 159 596 z"},"`":{"x_min":0,"x_max":274,"ha":274,"o":"m 88 688 l 160 688 q 160 682 183 634 q 205 585 216 560 q 227 535 227 530 l 195 530 q 195 535 176 562 q 158 588 142 609 q 127 630 107 658 q 88 685 88 688 z"},"k":{"x_min":0,"x_max":479,"ha":479,"o":"m 115 130 l 117 130 q 130 164 171 216 q 211 269 269 324 l 318 373 q 367 420 387 441 q 407 462 407 469 l 468 468 q 468 455 411 403 q 354 351 278 287 l 279 283 q 340 204 377 119 q 414 34 414 0 l 366 -5 q 366 27 337 104 q 307 182 253 255 q 230 231 213 212 q 195 192 182 176 q 109 76 105 0 l 59 -5 q 67 42 93 277 q 119 512 129 687 l 177 690 q 177 667 146 400 q 116 133 115 130 z"},"u":{"x_min":0,"x_max":518,"ha":518,"o":"m 432 2 l 382 -7 q 380 23 380 122 l 379 122 q 346 56 303 21 q 259 -13 196 -13 q 67 -13 67 132 q 67 148 72 219 q 77 290 77 291 q 86 407 86 464 l 135 474 q 135 466 129 407 q 123 348 122 333 l 116 253 q 113 214 111 188 q 110 163 110 144 q 110 79 131 52 q 153 25 210 25 q 276 25 333 109 q 389 193 395 276 l 398 318 q 407 416 407 464 l 458 473 q 438 319 431 242 q 424 166 424 112 q 424 53 432 2 z"},"]":{"x_min":0,"x_max":353,"ha":353,"o":"m 123 -189 q 135 -96 144 -16 q 153 63 165 181 l 175 278 q 198 472 219 702 l 197 702 q 194 702 147 700 q 99 699 46 694 l 53 743 l 271 739 q 245 557 228 392 q 210 228 188 -24 l 169 -227 l -55 -234 l -47 -187 q 42 -189 123 -189 z"},"U":{"x_min":0,"x_max":619,"ha":619,"o":"m 62 219 q 62 263 69 325 q 77 387 96 636 l 149 636 q 136 541 123 425 q 110 309 110 223 q 110 148 132 104 q 155 61 187 44 q 219 28 274 28 q 378 28 433 106 q 489 185 503 315 l 506 343 q 515 434 521 495 q 526 556 531 636 l 584 636 q 562 480 545 317 q 528 153 458 72 q 388 -10 263 -10 q 168 -10 115 47 q 62 104 62 219 z"},"o":{"x_min":0,"x_max":526,"ha":526,"o":"m 295 485 q 375 485 425 426 q 475 367 475 275 q 475 153 406 67 q 336 -19 230 -19 q 151 -19 101 43 q 51 106 51 203 q 51 316 120 401 q 188 485 295 485 z m 238 19 q 317 19 374 91 q 430 163 430 263 q 430 351 393 399 q 356 447 285 447 q 204 447 150 376 q 96 306 96 207 q 96 122 134 70 q 171 19 238 19 z"},"N":{"x_min":0,"x_max":578,"ha":578,"o":"m 444 70 l 448 70 q 446 81 446 104 q 446 161 460 281 q 474 402 494 636 l 539 636 q 536 614 525 520 l 504 335 l 497 264 q 478 96 472 0 l 433 0 q 433 29 308 257 q 182 485 144 591 l 138 591 q 138 589 139 583 q 139 575 138 568 l 137 544 q 136 517 115 331 q 95 145 84 0 l 39 0 q 44 35 60 179 l 78 335 q 100 529 105 636 l 167 636 q 167 628 201 553 q 236 478 328 310 q 421 142 444 70 z"},"+":{"x_min":0,"x_max":504,"ha":504,"o":"m 441 225 l 269 225 l 251 36 l 211 36 l 229 225 l 62 225 l 63 267 l 235 267 l 253 456 l 295 456 l 276 267 l 444 267 z"},"G":{"x_min":0,"x_max":562,"ha":562,"o":"m 319 28 q 349 28 368 30 q 387 32 417 38 l 431 41 l 434 71 q 438 139 442 172 q 446 206 449 245 l 451 270 l 502 270 l 498 237 q 487 173 481 110 q 476 47 474 14 q 441 1 405 -6 q 368 -13 317 -13 q 184 -13 112 65 q 40 143 40 281 q 40 435 141 540 q 243 645 395 645 q 423 645 454 640 q 486 636 510 628 l 495 582 q 430 601 374 601 q 254 601 171 510 q 88 419 88 291 q 88 165 148 96 q 208 28 319 28 z"},"q":{"x_min":0,"x_max":523,"ha":523,"o":"m 299 481 q 333 481 365 472 q 396 463 419 448 l 422 448 l 444 464 l 473 467 q 468 437 448 281 q 427 125 401 -217 l 354 -221 q 361 -173 372 -50 q 384 72 395 128 l 392 128 q 360 60 312 25 q 265 -9 206 -9 q 136 -9 92 46 q 48 101 48 183 q 48 320 114 400 q 180 481 299 481 z m 220 29 q 288 29 342 107 q 396 185 406 280 l 420 409 q 396 424 363 434 q 329 443 299 443 q 202 443 147 378 q 93 312 93 199 q 93 29 220 29 z"},"d":{"x_min":0,"x_max":534,"ha":534,"o":"m 454 349 q 440 239 437 184 q 433 129 433 103 q 433 57 441 0 l 401 -7 q 396 11 394 41 q 393 70 393 127 l 392 128 q 360 60 312 25 q 265 -9 206 -9 q 136 -9 92 46 q 48 101 48 183 q 48 320 114 400 q 180 481 299 481 q 334 481 367 472 q 399 463 422 449 l 424 449 q 430 494 434 550 q 438 606 442 688 l 491 690 q 484 636 472 519 q 459 401 456 365 z m 220 29 q 288 29 342 107 q 396 185 406 280 l 420 409 q 396 424 363 434 q 329 443 299 443 q 202 443 147 378 q 93 312 93 199 q 93 29 220 29 z"},"1":{"x_min":0,"x_max":324,"ha":324,"o":"m 200 439 l 61 339 l 44 368 l 216 504 l 254 504 q 244 424 229 299 l 219 208 l 201 0 l 151 0 q 177 173 187 277 q 197 381 200 439 z"},"5":{"x_min":0,"x_max":449,"ha":449,"o":"m 158 478 q 152 455 139 387 q 125 319 119 272 q 259 272 326 231 q 393 190 393 109 q 393 26 344 -36 q 295 -98 204 -135 q 112 -173 25 -177 l 20 -137 q 162 -125 255 -62 q 348 1 348 97 q 348 168 286 199 q 225 231 62 231 q 72 265 83 323 q 95 381 119 515 l 391 515 l 384 468 q 338 473 275 475 q 213 478 158 478 z"}}}
